Coordinates
version=1
nRows=6
nColumns=36
inDegrees=yes

Units are S.I. units (second, meters, Newtons, ...)
If the header above contains a line with 'inDegrees', this indicates whether rotational values are in degrees (yes) or radians (no).

endheader
time	pelvis_tilt	pelvis_list	pelvis_rotation	pelvis_tx	pelvis_ty	pelvis_tz	hip_flexion_r	hip_adduction_r	hip_rotation_r	knee_angle_r	knee_angle_r_beta	ankle_angle_r	subtalar_angle_r	mtp_angle_r	hip_flexion_l	hip_adduction_l	hip_rotation_l	knee_angle_l	knee_angle_l_beta	ankle_angle_l	subtalar_angle_l	mtp_angle_l	lumbar_extension	lumbar_bending	lumbar_rotation	arm_flex_r	arm_add_r	arm_rot_r	elbow_flex_r	pro_sup_r	arm_flex_l	arm_add_l	arm_rot_l	elbow_flex_l	pro_sup_l
     15.13333330	     -0.41445868	      0.38665423	      3.36480279	      0.73472621	      0.99718257	      0.87122588	    -17.69208803	      1.39657300	     -8.01081335	      7.75854336	      0.13541213	     16.64501142	      2.53878124	     -7.49999987	     29.19806526	      0.46772512	      1.62261969	     14.84155786	      0.25903405	      8.20161454	      0.77899274	     -7.49999987	    -13.01335138	      1.23822429	      2.51357839	      8.38620054	    -16.08133715	     -5.20532112	     41.30692179	     71.60012024	     -8.83109297	     -6.39916380	     -4.75015185	     11.93095750	     66.40924050
     15.15000000	      0.01137370	      0.66526752	      3.41077583	      0.74066816	      0.99683627	      0.87137274	    -18.48761977	      0.88695994	     -7.46200502	      9.41757124	      0.16436763	     16.13208706	      1.76413233	     -7.49999987	     28.72255498	      0.82392679	      1.90914743	     17.55204339	      0.30634095	      6.39395455	      0.10287653	     -7.49999987	    -13.23648898	      0.72170986	      2.86485283	      7.78128438	    -15.79622134	     -4.85883722	     40.70895893	     71.35525080	     -8.64105113	     -7.00194144	     -5.43632190	     12.06819059	     66.62386026
     15.16666670	      0.29141610	      0.88013500	      3.41637924	      0.74489454	      0.99585081	      0.87060486	    -18.66689395	      0.36641227	     -6.76342504	     12.01082764	      0.20962849	     14.91778101	      0.45533533	     -7.49999987	     28.24014046	      1.14420008	      2.37995815	     20.07972560	      0.35045732	      4.61666429	     -0.83754786	     -7.49999987	    -13.15625249	      0.31404063	      3.45463095	      7.14193562	    -15.47930004	     -4.49595187	     39.69697325	     71.26749133	     -8.17929470	     -7.59335392	     -5.99077659	     11.96862140	     66.92948519
     15.18333330	      0.68318600	      1.21129151	      3.45717633	      0.74774878	      0.99643714	      0.86797399	    -18.36165233	     -0.30978762	     -6.09568286	     15.79276234	      0.27563570	     12.75178481	     -1.50590819	     -7.49999987	     27.49155040	      1.61077330	      2.79820665	     22.39535027	      0.39087260	      3.39647221	     -1.90985552	     -7.49999987	    -13.23993775	     -0.12740959	      3.70439357	      6.83490535	    -14.98983346	     -4.18779319	     38.42805817	     71.43211524	     -7.86111481	     -8.18392318	     -6.31616450	     12.43425676	     67.36728946
     15.20000000	      1.00503137	      1.69240033	      3.47872824	      0.75100545	      0.99951345	      0.86291789	    -17.35216360	     -1.21453418	     -5.37432696	     20.65084682	      0.36042527	      9.44540394	     -3.94551845	     -7.49999987	     26.64198148	      2.24972635	      3.07846967	     24.41239729	      0.42607671	      2.84357657	     -3.07421069	     -7.49999987	    -13.22939291	     -0.62830932	      3.65865633	      6.74931195	    -14.42277344	     -3.79056206	     36.67942999	     71.82744442	     -7.55564595	     -8.60829447	     -6.79879687	     13.10019372	     67.83503635
     15.21666670	      1.20765301	      2.26986657	      3.39531431	      0.75559556	      1.00413667	      0.85670344	    -15.74190969	     -2.28950903	     -4.48172028	     26.04618939	      0.45459176	      5.00555603	     -6.48929221	     -7.49999987	     25.71615904	      2.97791537	      3.18281870	     26.03663709	      0.45442504	      2.89422076	     -4.22784698	     -7.49999987	    -13.07803855	     -1.15905346	      3.87082541	      6.30365031	    -13.89217156	     -3.84505772	     34.96964262	     71.34870265	     -7.01309877	     -8.83176854	     -7.19858248	     13.77303699	     67.53918218
